<?xml version="1.0" encoding="UTF-8" standalone="no"?>
<!-- Created with Inkscape (http://www.inkscape.org/) -->

<svg
   xmlns:dc="http://purl.org/dc/elements/1.1/"
   xmlns:cc="http://creativecommons.org/ns#"
   xmlns:rdf="http://www.w3.org/1999/02/22-rdf-syntax-ns#"
   xmlns:svg="http://www.w3.org/2000/svg"
   xmlns="http://www.w3.org/2000/svg"
   xmlns:sodipodi="http://sodipodi.sourceforge.net/DTD/sodipodi-0.dtd"
   xmlns:inkscape="http://www.inkscape.org/namespaces/inkscape"
   width="0.93699998mm"
   height="1.849mm"
   viewBox="0 0 3.3200787 6.5515747"
   id="svg5243"
   version="1.1"
   inkscape:version="0.91 r13725"
   sodipodi:docname="4_06_nadvori_kresba.svg">
  <defs
     id="defs5245" />
  <sodipodi:namedview
     id="base"
     pagecolor="#ffffff"
     bordercolor="#666666"
     borderopacity="1.0"
     inkscape:pageopacity="0.0"
     inkscape:pageshadow="2"
     inkscape:zoom="119.94444"
     inkscape:cx="1.7716535"
     inkscape:cy="3.5433071"
     inkscape:document-units="mm"
     inkscape:current-layer="layer1"
     showgrid="true"
     inkscape:window-width="1920"
     inkscape:window-height="1017"
     inkscape:window-x="-8"
     inkscape:window-y="-8"
     inkscape:window-maximized="1">
    <inkscape:grid
       type="xygrid"
       id="grid5791"
       units="mm"
       spacingx="0.035433071"
       spacingy="0.035433071"
       enabled="true" />
  </sodipodi:namedview>
  <metadata
     id="metadata5248">
    <rdf:RDF>
      <cc:Work
         rdf:about="">
        <dc:format>image/svg+xml</dc:format>
        <dc:type
           rdf:resource="http://purl.org/dc/dcmitype/StillImage" />
        <dc:title></dc:title>
      </cc:Work>
    </rdf:RDF>
  </metadata>
  <g
     inkscape:label="Vrstva 1"
     inkscape:groupmode="layer"
     id="layer1"
     transform="translate(0,-1045.8106)">
    <text
       xml:space="preserve"
       style="font-style:normal;font-weight:normal;font-size:40px;line-height:125%;font-family:sans-serif;letter-spacing:0px;word-spacing:0px;fill:#000000;fill-opacity:1;stroke:none;stroke-width:1px;stroke-linecap:butt;stroke-linejoin:miter;stroke-opacity:1"
       x="35.433071"
       y="1048.8188"
       id="text5793"
       sodipodi:linespacing="125%"><tspan
         sodipodi:role="line"
         id="tspan5795"
         x="35.433071"
         y="1048.8188" /></text>
    <text
       xml:space="preserve"
       style="font-style:italic;font-variant:normal;font-weight:normal;font-stretch:normal;font-size:8.21653175px;line-height:125%;font-family:sans-serif;-inkscape-font-specification:'sans-serif Italic';letter-spacing:0px;word-spacing:0px;fill:#000000;fill-opacity:1;stroke:none;stroke-width:1px;stroke-linecap:butt;stroke-linejoin:miter;stroke-opacity:1"
       x="-0.43329361"
       y="945.37653"
       id="text5797"
       sodipodi:linespacing="125%"
       transform="scale(0.89845579,1.1130208)"><tspan
         sodipodi:role="line"
         id="tspan5799"
         x="-0.43329361"
         y="945.37653" /></text>
    <path
       style="fill:#000000;fill-opacity:1;fill-rule:evenodd;stroke:none;stroke-width:0.00354331;stroke-linecap:butt;stroke-linejoin:miter;stroke-miterlimit:4;stroke-dasharray:none;stroke-opacity:1"
       d="m 2.0967366,1051.5573 -0.091424,0.7079 0.5072427,0.097 0.8091728,-6.4533 -0.503217,-0.097 -0.3140073,2.5201 c 0,0 -0.1187187,-0.4769 -0.2985478,-0.657 -0.079869,-0.08 -0.2100441,-0.211 -0.351799,-0.2755 -0.1774148,-0.081 -0.3619051,-0.086 -0.3619051,-0.086 l 0.00212,0.665 c 0,0 0.1707116,-0.019 0.3493621,0.074 0.097758,0.051 0.1951566,0.1557 0.2746182,0.2713 0.1958633,0.2848 0.220572,0.8561 0.2264134,1.1779 0.012542,0.6909 -0.3274002,2.1733 -1.0681134,2.0908 -0.7407132,-0.082 -0.7911725,-1.0648 -0.7045037,-1.9566 0.038334,-0.3944 0.1411822,-0.8932 0.3353943,-1.183 0.082348,-0.1229 0.1717527,-0.2637 0.2593462,-0.3343 0.1729311,-0.1392 0.3274829,-0.1405 0.3274829,-0.1405 l -5.535e-4,-0.6654 c 0,0 -0.3389557,-0.056 -0.6785775,0.2853 -0.2099366,0.211 -0.4781646,0.7107 -0.5460323,0.915 -0.15049038,0.453 -0.23650852,1.1471 -0.23650852,1.1471 0,0 -0.0570354,0.4666 -0.0204551,0.9355 0.0273655,0.3508 0.13033869,0.6995 0.20757662,0.8798 0.2107381,0.492 0.6016706,0.7336 0.8822903,0.7409 0.2417681,0.01 0.4863523,-0.044 0.6298462,-0.1885 0.1617792,-0.1629 0.2650995,-0.3115 0.3647785,-0.4709 z"
       id="path4140"
       inkscape:connector-curvature="0"
       sodipodi:nodetypes="ccccccssccssszsssccsscsssscc" />
  </g>
</svg>
