<?xml version="1.0" encoding="UTF-8" standalone="no"?>
<!-- Generator: Adobe Illustrator 16.0.4, SVG Export Plug-In . SVG Version: 6.00 Build 0)  -->

<svg
   xmlns:dc="http://purl.org/dc/elements/1.1/"
   xmlns:cc="http://creativecommons.org/ns#"
   xmlns:rdf="http://www.w3.org/1999/02/22-rdf-syntax-ns#"
   xmlns:svg="http://www.w3.org/2000/svg"
   xmlns="http://www.w3.org/2000/svg"
   xmlns:sodipodi="http://sodipodi.sourceforge.net/DTD/sodipodi-0.dtd"
   xmlns:inkscape="http://www.inkscape.org/namespaces/inkscape"
   version="1.1"
   id="svg10884"
   inkscape:version="0.91 r13725"
   sodipodi:docname="4_24_vodni dilo_NOVY.svg"
   x="0px"
   y="0px"
   width="2.5mm"
   height="1mm"
   viewBox="0 0 8.8582677 3.543307"
   enable-background="new 0 0 7.086 2.834"
   xml:space="preserve"><metadata
   id="metadata5256"><rdf:RDF><cc:Work
       rdf:about=""><dc:format>image/svg+xml</dc:format><dc:type
         rdf:resource="http://purl.org/dc/dcmitype/StillImage" /><dc:title></dc:title></cc:Work></rdf:RDF></metadata><defs
   id="defs5254" />
<sodipodi:namedview
   inkscape:cx="4.4291339"
   borderopacity="1.0"
   inkscape:zoom="164.25333"
   id="base"
   bordercolor="#666666"
   inkscape:cy="1.7716535"
   pagecolor="#ffffff"
   showgrid="true"
   inkscape:window-y="-8"
   inkscape:window-height="1018"
   inkscape:pageopacity="0.0"
   inkscape:current-layer="layer1"
   inkscape:document-units="mm"
   inkscape:pageshadow="2"
   inkscape:window-width="1920"
   inkscape:window-maximized="1"
   inkscape:window-x="-8"
   units="mm"
   inkscape:showpageshadow="false">
	<inkscape:grid
   type="xygrid"
   units="mm"
   id="grid11432"
   spacingx="0.035433071"
   spacingy="0.035433071" />
</sodipodi:namedview>
<g
   id="layer1"
   transform="translate(0,-1048.1096)"
   inkscape:label="Vrstva 1"
   inkscape:groupmode="layer">
	<g
   id="path11442"
   transform="matrix(1.2501083,0,0,1.2494031,0,-262.28573)">
		<path
   d="m 5.115,1051.653 c -0.785,10e-4 -1.656,-1.148 -1.757,-1.285 -0.369,-0.49 -1.07,-1.161 -1.453,-1.096 -0.722,0.113 -1.355,1.804 -1.518,2.381 L 0,1051.654 c 0.074,-0.559 0.693,-2.648 1.833,-2.826 0.805,-0.134 1.786,1.13 1.894,1.274 0.362,0.49 1.024,1.142 1.43,1.098 0.727,-0.108 1.32,-1.804 1.488,-2.382 l 0.441,0 c -0.198,0.634 -0.716,2.655 -1.861,2.826 -0.036,0.01 -0.073,0.01 -0.11,0.01 z"
   id="path5252"
   inkscape:connector-curvature="0" />
	</g>
</g>
</svg>