<?xml version="1.0" encoding="UTF-8" standalone="no"?>
<!-- Created with Inkscape (http://www.inkscape.org/) -->

<svg
   xmlns:dc="http://purl.org/dc/elements/1.1/"
   xmlns:cc="http://creativecommons.org/ns#"
   xmlns:rdf="http://www.w3.org/1999/02/22-rdf-syntax-ns#"
   xmlns:svg="http://www.w3.org/2000/svg"
   xmlns="http://www.w3.org/2000/svg"
   xmlns:sodipodi="http://sodipodi.sourceforge.net/DTD/sodipodi-0.dtd"
   xmlns:inkscape="http://www.inkscape.org/namespaces/inkscape"
   width="4.7800002mm"
   height="35.221001mm"
   viewBox="0 0 16.937008 124.79882"
   id="svg2"
   version="1.1"
   inkscape:version="0.91 r13725"
   sodipodi:docname="severka_kresba.svg">
  <defs
     id="defs4" />
  <sodipodi:namedview
     id="base"
     pagecolor="#ffffff"
     bordercolor="#666666"
     borderopacity="1.0"
     inkscape:pageopacity="0.0"
     inkscape:pageshadow="2"
     inkscape:zoom="6.8109618"
     inkscape:cx="8.4685043"
     inkscape:cy="62.399411"
     inkscape:document-units="mm"
     inkscape:current-layer="layer1"
     showgrid="true"
     inkscape:window-width="1920"
     inkscape:window-height="1017"
     inkscape:window-x="-8"
     inkscape:window-y="-8"
     inkscape:window-maximized="1">
    <inkscape:grid
       type="xygrid"
       id="grid4136"
       units="mm"
       spacingx="0.3543307"
       spacingy="0.35433072"
       enabled="false" />
  </sodipodi:namedview>
  <metadata
     id="metadata7">
    <rdf:RDF>
      <cc:Work
         rdf:about="">
        <dc:format>image/svg+xml</dc:format>
        <dc:type
           rdf:resource="http://purl.org/dc/dcmitype/StillImage" />
        <dc:title></dc:title>
      </cc:Work>
    </rdf:RDF>
  </metadata>
  <g
     inkscape:label="Vrstva 1"
     inkscape:groupmode="layer"
     id="layer1"
     transform="translate(0,-927.56339)">
    <path
       style="fill:#ff0000;fill-rule:evenodd;stroke:#ff0000;stroke-width:1.41732287;stroke-linecap:butt;stroke-linejoin:miter;stroke-miterlimit:4;stroke-dasharray:none;stroke-opacity:1"
       d="m 9.1332389,1052.3622 0,-88.58268"
       id="path4138"
       inkscape:connector-curvature="0" />
    <path
       style="fill:none;fill-rule:evenodd;stroke:#ff0000;stroke-width:1.41732287;stroke-linecap:butt;stroke-linejoin:miter;stroke-miterlimit:4;stroke-dasharray:none;stroke-opacity:1"
       d="m 2.6910139,978.00989 6.443284,-13.9451 6.4432841,13.9451"
       id="path4142"
       inkscape:connector-curvature="0" />
    <path
       style="fill:#ff0000;fill-opacity:1;fill-rule:evenodd;stroke:none;stroke-width:0.03543307;stroke-linecap:butt;stroke-linejoin:miter;stroke-miterlimit:4;stroke-dasharray:none;stroke-opacity:1"
       d="m 15.500697,929.11489 0,3.86875 c -0.843604,-0.75281 -4.261592,-2.25667 -6.9156936,-2.1538 -1.0935345,0.0424 -2.3671485,0.32964 -3.1804399,0.78193 -1.3579931,0.75522 -2.1128307,2.09718 -2.1417493,4.13526 -0.0411,2.8966 1.9227223,4.02504 3.7187969,4.37928 2.4844018,0.49 4.7869749,0.96068 6.8215729,2.41077 2.800222,1.99577 3.370449,5.57669 3.061566,8.69843 -0.327999,3.31493 -1.785494,6.41568 -7.0764346,7.05627 -5.2909408,0.64059 -9.65064797,-1.6957 -9.64418737,-1.70087 l 0,-4.18457 c 0,0 1.79012407,1.2952 3.88393067,2.09892 1.3064209,0.50149 2.7864678,0.65467 3.8535693,0.66448 1.3199854,0.0121 3.562701,-0.55055 4.52522,-1.76706 1.097054,-1.38655 1.186999,-2.62559 1.177118,-4.18053 -0.0079,-1.23921 -0.617507,-2.49532 -1.733001,-3.2838 -1.333598,-0.94265 -3.1632077,-1.36892 -4.8504269,-1.7617 -2.4461628,-0.56946 -5.5724705,-1.6942 -6.51878019,-5.02949 -0.23725129,-0.8362 -0.57835011,-2.20808 -0.456061,-3.2817 0.220759,-1.93812 0.26980309,-2.51172 0.56154494,-3.36034 0.51446995,-1.4965 1.26390665,-2.39174 2.47515455,-3.35075 1.8981135,-1.50285 3.8928638,-1.60508 5.5600573,-1.58244 0.7206801,0.01 2.1476493,0.117 3.5165663,0.43164 1.797882,0.41325 3.495631,1.06348 3.361677,1.11132 z"
       id="path4139"
       inkscape:connector-curvature="0"
       sodipodi:nodetypes="ccsssssszccssssssssssssc" />
  </g>
</svg>
